TITLE "The Trentemøller Chronicles (Mixed And Compiled By Trentemøller"
PERFORMER "VA"

FILE "101-va-mixed_and_compiled_by_trentemoller.mp3" MP3
TRACK 
01 AUDIO
TITLE "The Forrest"
PERFORMER "Trentemøller"
FLAGS DCP
INDEX 01 00:00:00

TRACK 
02 AUDIO
TITLE "Klodsmajor"
PERFORMER "Trentemøller"
FLAGS DCP
ISRC DEL200750015
INDEX 01 05:59:07

TRACK 
03 AUDIO
TITLE "McKlaren (Trentemøller Remix)"
PERFORMER "Klovn"
FLAGS DCP
ISRC DEAA20700329
INDEX 01 09:09:33

TRACK 04 AUDIO
TITLE "Snowflake (Live Version)"
PERFORMER "Trentemøller"
FLAGS DCP
ISRC DEL020720020
INDEX 01 14:28:22

TRACK 
05 AUDIO
TITLE "Blood In The Streets"
PERFORMER "Trentemøller"
FLAGS DCP
ISRC DEL020750016
INDEX 01 22:13:66

TRACK 06 AUDIO
TITLE "Moan (Trentemøller Remix)"
PERFORMER "Trentemøller"
FLAGS DCP
ISRC DEL020620082
INDEX 01 28:40:55

TRACK 
07 AUDIO
TITLE "Kink"
PERFORMER "Trentemøller"
FLAGS DCP
INDEX 01 36:56:04

TRACK 
08 AUDIO
TITLE "Gush"
PERFORMER "Trentemøller"
FLAGS DCP
INDEX 01 42:54:06

TRACK 
09 AUDIO
TITLE "Physical Fraction"
PERFORMER "Trentemøller"
FLAGS DCP
ISRC DEL020550001
INDEX 01 48:20:28

TRACK 
10 AUDIO
TITLE "Killer Kat"
PERFORMER "Trentemøller"
FLAGS DCP
ISRC DEL020620015
INDEX 01 54:08:40

TRACK 
11 AUDIO
TITLE "Rykketid"
PERFORMER "Trentemøller"
FLAGS DCP
ISRC DEL020550002
INDEX 01 59:37:35

TRACK 
12 AUDIO
TITLE "Always Something Better (Trentemøller Remix)"
PERFORMER "Trentemøller"
FLAGS DCP
ISRC DEL020620054
INDEX 01 64:16:10
